HIERARCHY
ROOT hip
{
	OFFSET 0.000000 0.000000 0.000000 
	CHANNELS 6 Xposition Yposition Zposition Xrotation Zrotation Yrotation
	JOINT abdomen
	{
		OFFSET 0.000000 3.402643 0.000000 
		CHANNELS 3 Xrotation Zrotation Yrotation
		JOINT chest
		{
			OFFSET 0.000000 8.438565 -0.680529 
			CHANNELS 3 Xrotation Zrotation Yrotation
			JOINT neck
			{
				OFFSET 0.000000 10.207942 -0.272212 
				CHANNELS 3 Xrotation Zrotation Yrotation
				JOINT head
				{
					OFFSET 0.000000 3.130431 0.000000 
					CHANNELS 3 Xrotation Zrotation Yrotation
					End Site
					{
						OFFSET 0.000000 3.130435 0.000000 
					}
				}
			}
			JOINT lCollar
			{
				OFFSET 3.470700 6.669187 -0.816635 
				CHANNELS 3 Yrotation Zrotation Xrotation
				JOINT lShldr
				{
					OFFSET 3.198488 0.000000 0.000000 
					CHANNELS 3 Zrotation Yrotation Xrotation
					JOINT lForeArm
					{
						OFFSET 10.139888 0.000000 0.000000 
						CHANNELS 3 Yrotation Zrotation Xrotation
						JOINT lHand
						{
							OFFSET 8.370511 0.000000 0.000000 
							CHANNELS 3 Zrotation Yrotation Xrotation
							End Site
							{
								OFFSET 4.083176 0.000000 0.000000 
							}
						}
					}
				}
			}
			JOINT rCollar
			{
				OFFSET -3.470700 6.669187 -0.816635 
				CHANNELS 3 Yrotation Zrotation Xrotation
				JOINT rShldr
				{
					OFFSET -3.198488 0.000000 0.000000 
					CHANNELS 3 Zrotation Yrotation Xrotation
					JOINT rForeArm
					{
						OFFSET -10.139888 0.000000 0.000000 
						CHANNELS 3 Yrotation Zrotation Xrotation
						JOINT rHand
						{
							OFFSET -8.370511 0.000000 0.000000 
							CHANNELS 3 Zrotation Yrotation Xrotation
							End Site
							{
								OFFSET -4.083176 0.000000 0.000000 
							}
						}
					}
				}
			}
		}
	}
	JOINT lThigh
	{
		OFFSET 5.308129 -1.633274 1.361059 
		CHANNELS 3 Xrotation Zrotation Yrotation
		JOINT lShin
		{
			OFFSET -2.041588 -20.007561 0.000000 
			CHANNELS 3 Xrotation Zrotation Yrotation
			JOINT lFoot
			{
				OFFSET 0.000000 -19.190928 -1.224953 
				CHANNELS 3 Xrotation Yrotation Zrotation
				End Site
				{
					OFFSET 0.000000 -2.449906 4.627600 
				}
			}
		}
	}
	JOINT rThigh
	{
		OFFSET -5.308129 -1.633274 1.361059 
		CHANNELS 3 Xrotation Zrotation Yrotation
		JOINT rShin
		{
			OFFSET 2.041588 -20.007561 0.000000 
			CHANNELS 3 Xrotation Zrotation Yrotation
			JOINT rFoot
			{
				OFFSET 0.000000 -19.190928 -1.224953 
				CHANNELS 3 Xrotation Yrotation Zrotation
				End Site
				{
					OFFSET 0.000000 -2.449906 4.627600 
				}
			}
		}
	}
}
MOTION
Frames: 9
Frame Time: 0.011111
17.207407 53.672050 -3.621719 -3.946471 2.378436 -93.813911 14.852149 -4.936345 -3.543382 -14.187965 3.478324 -0.346771 -17.013794 -16.128220 -5.525988 44.344830 17.982634 -10.980730 3.554561 -11.856053 1.830316 -68.193642 -35.871986 26.100502 -44.416710 6.208973 5.984135 8.524705 12.647240 -43.606827 1.017460 16.414410 0.108193 56.297981 26.600964 15.367465 47.417618 -7.067144 7.135856 -8.534408 -12.637552 53.285015 3.522851 7.709090 -3.975345 16.071390 -5.871818 -2.977881 -32.261345 13.117226 5.597152 6.297728 -14.295356 -5.192352 6.625588 5.980665 1.620173 -23.628790 -14.203823 -2.819070 
17.229267 53.689674 -3.608342 -4.156290 2.365155 -93.718025 14.942147 -5.071296 -3.747110 -14.217219 3.502988 -0.394897 -17.215199 -16.011658 -5.491865 44.577919 17.630184 -11.054914 3.554561 -11.856053 1.830316 -68.225586 -35.909996 26.013355 -44.447388 6.218967 6.001796 8.524705 12.647240 -43.509163 1.017460 16.414410 0.108193 56.365005 26.622620 14.995459 47.573780 -7.112885 7.199339 -8.534408 -12.637552 52.699078 3.494821 7.476945 -4.421210 16.072056 -5.869093 -2.987269 -32.570049 13.082182 5.703472 6.423594 -14.577239 -5.374158 6.317369 5.984286 1.582360 -23.476517 -14.332460 -2.809953 
17.251455 53.716427 -3.589091 -4.319666 2.429982 -93.930061 14.909418 -5.197076 -3.656340 -14.207868 3.430770 -0.363107 -16.383781 -16.136784 -5.449009 43.534073 18.089922 -10.676371 3.554561 -11.856053 1.830316 -68.199226 -35.979317 26.041903 -44.457336 6.217045 5.993408 8.524705 12.647240 -43.460339 1.017460 16.414410 0.108193 56.480076 26.655554 14.603275 47.759991 -7.159756 7.274881 -8.534408 -12.637552 52.132671 3.524310 7.272392 -4.479664 15.913406 -5.877997 -2.954808 -32.614685 13.313880 5.827282 6.100788 -14.858709 -5.180807 6.464164 5.984265 1.595554 -23.427042 -14.424142 -2.839009 
17.306597 53.749378 -3.549611 -4.411991 2.659425 -94.736702 14.727119 -5.329611 -2.956225 -14.258039 3.193184 -0.176837 -16.294285 -16.164515 -5.493718 43.371422 18.321062 -10.691966 3.554561 -11.856053 1.830316 -68.073135 -36.052029 26.312105 -44.508438 6.230734 6.010858 8.524705 12.647240 -43.401749 1.017460 16.414410 0.108193 56.719906 26.721752 13.935995 47.863926 -7.187234 7.312382 -8.534408 -12.637552 51.595562 3.261532 7.058716 -4.495961 16.113443 -5.869659 -2.991841 -33.335869 13.630918 6.274658 6.021726 -15.128679 -4.454021 5.212557 5.980800 1.424402 -22.591619 -15.084999 -2.747976 
17.299419 53.695541 -3.572125 -4.437197 2.389334 -94.622765 14.995139 -5.435767 -3.028186 -14.189515 3.204188 -0.181642 -17.182880 -16.028469 -5.565403 44.480068 17.894260 -11.105723 3.554561 -11.856053 1.830316 -67.992325 -36.035229 26.554258 -44.651821 6.273496 6.072833 8.524705 12.647240 -43.294323 1.017460 16.414410 0.108193 56.980270 26.759298 13.000422 47.915344 -7.197929 7.331847 -8.534408 -12.637552 50.824074 3.570802 7.043279 -4.451464 16.207655 -5.868559 -2.989816 -33.456142 13.424796 6.229190 7.078098 -15.065557 -4.732166 3.974401 5.974885 1.234668 -22.200523 -15.341332 -2.689778 
17.811680 53.880871 -3.726781 -2.527336 3.269628 -95.401268 15.856090 -3.717526 -1.966238 -15.841828 3.307912 -0.068614 -16.680281 -16.041655 -5.532465 43.857666 17.997581 -10.926023 3.554561 -11.856053 1.830316 -68.029182 -35.975334 26.701738 -44.775265 6.311075 6.114667 8.524705 12.647240 -42.981823 1.017460 16.414410 0.108193 57.115883 26.763594 12.236926 47.946461 -7.205388 7.341081 -8.534408 -12.637552 50.091656 1.445375 9.555967 -4.210293 16.362963 -5.868102 -3.023323 -33.603455 14.075595 6.594154 6.879974 -12.608805 -3.351880 1.728510 5.952368 0.925472 -20.924385 -15.866379 -2.404283 
17.742834 53.878910 -3.692196 -3.196043 3.109862 -95.447487 15.763303 -4.389556 -2.179857 -15.626328 3.367367 -0.060857 -16.410408 -16.142244 -5.521272 43.444641 18.199663 -10.814463 3.554561 -11.856053 1.830316 -68.039658 -35.984745 26.926596 -44.796238 6.322236 6.132164 8.524705 12.647240 -42.542370 1.017460 16.414410 0.108193 57.056213 26.800789 12.315814 47.791096 -7.167304 7.284060 -8.534408 -12.637552 50.160015 1.688889 8.716234 -4.549249 16.590391 -5.869249 -3.053453 -33.881725 14.155021 6.765923 7.869059 -13.454763 -3.686528 -0.107361 5.930713 0.664556 -20.044544 -16.470886 -2.235680 
17.817879 53.905346 -3.712425 -2.998586 3.206358 -95.477844 15.925822 -4.216234 -2.107265 -15.831618 3.395509 -0.060731 -16.409348 -16.118155 -5.507795 43.398224 18.168779 -10.787459 3.554561 -11.856053 1.830316 -68.032219 -36.033871 27.092358 -44.755051 6.306839 6.105087 8.524705 12.647240 -42.347061 1.017460 16.414410 0.108193 57.064350 26.840136 12.286391 47.770596 -7.164664 7.283580 -8.534408 -12.637552 50.072128 1.337524 8.980546 -4.501347 16.776731 -5.869393 -3.070224 -33.784576 14.227788 6.758019 7.730267 -13.207762 -3.577132 -0.107355 5.930716 0.664555 -20.028442 -16.424818 -2.215121 
17.856707 53.904690 -3.710468 -2.966004 3.229028 -95.416641 16.011919 -4.140683 -2.144699 -15.910070 3.357291 -0.078291 -16.509750 -15.977215 -5.483134 43.524212 17.965380 -10.783512 3.554561 -11.856053 1.830316 -68.043716 -36.062801 27.102371 -44.724133 6.297612 6.097054 8.524705 12.647240 -42.337292 1.017460 16.414410 0.108193 57.100765 26.899918 12.158942 47.687172 -7.139681 7.247870 -8.534408 -12.637552 49.876812 1.308812 9.031144 -4.387780 16.624735 -5.857898 -3.075031 -33.551785 14.253805 6.653506 7.674036 -13.181412 -3.620088 -0.107355 5.930715 0.664555 -19.971313 -16.402674 -2.194516 
